<?xml version="1.0" encoding="UTF-8"?>
<svg xmlns="http://www.w3.org/2000/svg" xmlns:xlink="http://www.w3.org/1999/xlink" width="62px" height="16px" viewBox="0 0 62 16" version="1.1">
<g id="surface1">
<path style=" stroke:none;fill-rule:nonzero;fill:rgb(0%,57.254905%,52.549022%);fill-opacity:1;" d="M 11.726562 0.453125 L 0.484375 0.453125 L 0.484375 9.898438 L 6.105469 15.546875 L 6.105469 4.203125 L 11.726562 9.851562 Z M 11.726562 0.453125 "/>
<path style=" stroke:none;fill-rule:nonzero;fill:rgb(95.294118%,75.294119%,0%);fill-opacity:1;" d="M 11.726562 9.898438 L 6.105469 15.546875 L 6.105469 4.203125 Z M 11.726562 9.898438 "/>
<path style=" stroke:none;fill-rule:nonzero;fill:rgb(52.549022%,52.549022%,52.549022%);fill-opacity:1;" d="M 59.25 1.261719 C 56.980469 1.261719 56.980469 2.921875 56.980469 4.675781 C 56.980469 6.433594 56.980469 8.09375 59.25 8.09375 C 61.515625 8.09375 61.515625 6.433594 61.515625 4.675781 C 61.515625 2.921875 61.515625 1.261719 59.25 1.261719 Z M 17.441406 1.402344 L 15.644531 8 L 16.96875 8 L 17.347656 6.527344 L 19.238281 6.527344 L 19.613281 8 L 21.078125 8 L 19.285156 1.402344 Z M 22.214844 1.402344 L 22.214844 8 L 24.621094 8 C 25.1875 8 26.652344 7.90625 26.652344 6.242188 C 26.652344 5.34375 26.417969 4.726562 25.425781 4.582031 C 26.179688 4.441406 26.558594 3.871094 26.558594 3.109375 C 26.558594 1.6875 25.710938 1.402344 24.671875 1.402344 Z M 28.261719 1.402344 L 28.261719 8 L 29.535156 8 L 29.535156 3.160156 L 29.582031 3.160156 L 31.378906 8 L 33.171875 8 L 33.171875 1.402344 L 31.898438 1.402344 L 31.898438 5.957031 L 30.148438 1.402344 Z M 38.464844 1.402344 L 36.667969 8 L 37.992188 8 L 38.371094 6.527344 L 40.257812 6.527344 L 40.636719 8 L 42.101562 8 L 40.257812 1.402344 Z M 43.1875 1.402344 L 43.1875 8 L 44.511719 8 L 44.511719 2.921875 L 44.558594 2.921875 L 45.738281 8 L 47.0625 8 L 48.335938 2.921875 L 48.335938 8 L 49.660156 8 L 49.660156 1.402344 L 47.535156 1.402344 L 46.449219 5.910156 L 45.40625 1.402344 Z M 51.453125 1.449219 L 51.453125 8 L 52.824219 8 L 52.824219 5.246094 L 53.203125 5.246094 C 54.242188 5.246094 54.195312 5.910156 54.195312 6.71875 C 54.195312 7.144531 54.148438 7.574219 54.335938 8 L 55.660156 8 C 55.519531 7.714844 55.515625 6.480469 55.515625 6.054688 C 55.515625 4.867188 54.621094 4.773438 54.335938 4.773438 C 55.234375 4.628906 55.566406 4.011719 55.566406 3.160156 C 55.566406 2.019531 54.949219 1.449219 54.007812 1.449219 Z M 59.25 2.304688 C 60.003906 2.304688 60.101562 3.015625 60.101562 4.726562 C 60.101562 6.433594 60.050781 7.144531 59.25 7.144531 C 58.492188 7.144531 58.398438 6.433594 58.398438 4.726562 C 58.398438 3.015625 58.492188 2.304688 59.25 2.304688 Z M 23.582031 2.398438 L 24.433594 2.398438 C 24.90625 2.398438 25.238281 2.777344 25.238281 3.253906 C 25.238281 3.871094 24.8125 4.109375 24.527344 4.109375 L 23.582031 4.109375 Z M 52.824219 2.398438 L 53.4375 2.398438 C 53.863281 2.398438 54.148438 2.636719 54.148438 3.253906 C 54.148438 3.679688 54.003906 4.203125 53.4375 4.203125 L 52.824219 4.203125 Z M 18.246094 2.683594 L 18.953125 5.53125 L 17.632812 5.53125 Z M 39.265625 2.683594 L 39.976562 5.53125 L 38.652344 5.53125 Z M 35.351562 3.308594 L 34.484375 4.183594 L 35.355469 5.054688 L 36.222656 4.179688 Z M 23.582031 5.105469 L 24.386719 5.105469 C 25.09375 5.105469 25.285156 5.484375 25.285156 6.054688 C 25.285156 6.957031 24.621094 7.003906 24.339844 7.003906 L 23.582031 7.003906 Z M 23.582031 5.105469 "/>
</g>
</svg>
