<?xml version="1.0" encoding="UTF-8"?>
<svg xmlns="http://www.w3.org/2000/svg" xmlns:xlink="http://www.w3.org/1999/xlink" width="55px" height="16px" viewBox="0 0 54 16" version="1.1">
<g id="surface1">
<path style=" stroke:none;fill-rule:nonzero;fill:rgb(0%,21.176471%,44.313725%);fill-opacity:1;" d="M 30.539062 10.949219 L 30.539062 13.605469 C 29.082031 14.347656 27.695312 14.714844 26.3125 14.714844 C 22.484375 14.714844 20.191406 12.425781 20.191406 9.542969 C 20.191406 6.441406 22.8125 3.855469 26.167969 3.855469 C 27.003906 3.855469 27.625 4.003906 28.28125 4.226562 C 28.753906 4.371094 29.046875 4.558594 29.335938 4.558594 C 29.59375 4.558594 29.664062 4.113281 29.703125 3.855469 L 30.066406 3.855469 L 30.394531 7.4375 L 29.957031 7.4375 C 29.773438 6.738281 29.445312 6.144531 29.007812 5.738281 C 28.316406 5.039062 27.367188 4.667969 26.277344 4.667969 C 23.980469 4.667969 22.632812 6.515625 22.632812 9.285156 C 22.632812 12.019531 24.273438 13.902344 26.457031 13.902344 C 27.113281 13.902344 27.695312 13.757812 28.425781 13.421875 L 28.425781 10.6875 C 28.425781 9.800781 28.28125 9.46875 27.042969 9.46875 L 27.042969 9.066406 L 31.667969 9.066406 L 31.667969 9.46875 C 30.503906 9.46875 30.539062 9.839844 30.539062 10.949219 M 17.820312 6.589844 L 17.820312 14.53125 L 17.203125 14.53125 L 9.367188 6.332031 C 9.402344 6.550781 9.402344 6.738281 9.402344 6.957031 L 9.402344 11.945312 C 9.402344 13.496094 9.402344 14.050781 10.789062 14.050781 L 10.789062 14.457031 L 7.105469 14.457031 L 7.105469 14.050781 C 8.492188 14.050781 8.492188 13.386719 8.492188 11.945312 L 8.492188 6.257812 C 8.492188 5.40625 8.492188 4.484375 7.035156 4.484375 L 7.035156 4.078125 L 10.496094 4.078125 L 16.945312 10.800781 C 16.910156 10.617188 16.910156 10.503906 16.910156 10.246094 L 16.910156 6.589844 C 16.910156 5.113281 16.945312 4.484375 15.5625 4.484375 L 15.5625 4.078125 L 19.242188 4.078125 L 19.242188 4.484375 C 17.894531 4.484375 17.820312 5.074219 17.820312 6.589844 M 0 14.457031 L 0 14.050781 C 0.875 14.050781 1.492188 13.976562 1.492188 12.683594 L 1.492188 5.851562 C 1.492188 4.519531 1.019531 4.484375 0 4.484375 L 0 4.078125 L 5.175781 4.078125 L 5.175781 4.484375 C 4.117188 4.484375 3.679688 4.519531 3.679688 5.851562 L 3.679688 12.683594 C 3.679688 13.976562 4.226562 14.050781 5.175781 14.050781 L 5.175781 14.457031 Z M 0 14.457031 "/>
<path style=" stroke:none;fill-rule:nonzero;fill:rgb(100%,100%,100%);fill-opacity:1;" d="M 34.289062 14.496094 L 49.0625 14.496094 L 49.722656 13.367188 L 50.128906 11.101562 L 49.347656 8.644531 L 48.316406 7.132812 L 47.792969 6.960938 L 47.367188 7.152344 L 47.199219 7.835938 L 45.164062 8.144531 L 44.097656 7.339844 L 43.148438 4.9375 L 42.574219 3.269531 L 42.453125 2.585938 L 42.183594 2.257812 L 40.707031 2.015625 L 39.808594 2.464844 L 38.726562 2.015625 L 37.777344 1.984375 L 37.421875 2.585938 L 37.203125 3.011719 L 36.894531 3.785156 L 36.644531 4.902344 L 36.828125 6.6875 L 36.929688 8.007812 L 36.863281 8.78125 L 37.183594 10.050781 L 36.84375 11.082031 L 36.320312 12.4375 L 35.980469 12.609375 L 35.488281 12.386719 L 34.964844 12.679688 L 34.40625 12.902344 L 34.066406 13.417969 L 34.117188 14.207031 Z M 49.648438 4.335938 L 49.242188 3.972656 L 48.199219 3.742188 L 48.152344 3.355469 L 48.863281 3.148438 L 49.3125 3.507812 L 49.71875 3.585938 L 49.929688 3.613281 L 50.597656 4.464844 Z M 49.648438 4.335938 "/>
<path style=" stroke:none;fill-rule:nonzero;fill:rgb(92.156863%,40%,2.352941%);fill-opacity:1;" d="M 40.964844 6.34375 L 40.964844 6.136719 L 40.589844 6.136719 L 40.558594 6.203125 Z M 39.0625 6.136719 C 38.960938 6.03125 38.828125 6.136719 38.65625 6.101562 C 38.65625 6.136719 38.625 6.238281 38.726562 6.304688 C 38.859375 6.203125 39.027344 6.136719 39.0625 6.136719 M 41.40625 4.171875 C 41.40625 4.171875 41.472656 4.171875 41.40625 4.140625 L 40.625 4.070312 C 40.523438 4.140625 40.386719 4.140625 40.355469 4.242188 L 40.285156 4.277344 C 40.355469 4.554688 40.355469 4.863281 40.355469 5.171875 C 40.488281 5.207031 40.660156 5.308594 40.660156 5.515625 C 40.796875 5.585938 40.964844 5.617188 41.066406 5.722656 C 41.132812 5.6875 41.203125 5.585938 41.238281 5.480469 C 41.066406 5.308594 40.761719 5.414062 40.761719 5.101562 L 40.558594 5 C 40.558594 4.792969 40.558594 4.585938 40.488281 4.449219 L 40.558594 4.378906 C 40.558594 4.449219 40.589844 4.484375 40.660156 4.554688 C 40.796875 4.554688 40.964844 4.585938 41.066406 4.484375 C 41.132812 4.449219 41.132812 4.277344 41.238281 4.277344 C 41.269531 4.277344 41.371094 4.277344 41.40625 4.171875 M 39.335938 4.242188 C 39.335938 4.171875 39.269531 4.105469 39.164062 4.070312 L 38.316406 4.070312 C 38.316406 4.171875 38.417969 4.277344 38.519531 4.277344 C 38.519531 4.378906 38.625 4.449219 38.691406 4.484375 C 38.757812 4.554688 38.828125 4.554688 38.929688 4.484375 C 39.027344 4.554688 39.0625 4.378906 39.097656 4.484375 C 39.097656 4.691406 39.097656 4.792969 39.0625 4.964844 C 39.027344 5.207031 38.792969 5.171875 38.65625 5.308594 C 38.625 5.378906 38.519531 5.585938 38.625 5.6875 C 38.726562 5.617188 38.828125 5.585938 38.960938 5.515625 C 38.960938 5.414062 39.097656 5.308594 39.234375 5.207031 C 39.234375 4.894531 39.335938 4.585938 39.335938 4.242188 M 39.640625 3.417969 C 39.539062 3.347656 39.335938 3.453125 39.234375 3.519531 C 39.097656 3.554688 38.960938 3.65625 38.960938 3.761719 L 39.371094 3.761719 C 39.4375 3.65625 39.539062 3.519531 39.640625 3.417969 M 40.828125 3.761719 C 40.828125 3.65625 40.796875 3.65625 40.761719 3.625 C 40.589844 3.625 40.589844 3.347656 40.457031 3.417969 C 40.355469 3.417969 40.285156 3.347656 40.21875 3.417969 C 40.183594 3.453125 40.21875 3.453125 40.253906 3.453125 C 40.457031 3.453125 40.355469 3.726562 40.488281 3.761719 Z M 42.015625 3.554688 C 42.085938 3.347656 42.121094 3.039062 41.984375 2.832031 C 41.882812 2.730469 41.710938 2.625 41.542969 2.523438 L 41.269531 2.625 C 41.132812 2.730469 41.066406 2.832031 41.066406 3.039062 C 41.304688 3.140625 41.578125 3.417969 41.675781 3.65625 L 41.78125 3.65625 C 41.882812 3.554688 41.984375 3.65625 42.015625 3.554688 M 38.859375 3.039062 C 38.828125 2.695312 38.417969 2.625 38.214844 2.523438 L 38.113281 2.523438 C 37.808594 2.589844 37.742188 2.902344 37.707031 3.140625 C 37.808594 3.453125 38.011719 3.246094 38.179688 3.453125 C 38.316406 3.347656 38.691406 3.105469 38.859375 3.039062 M 34.6875 13.566406 C 34.652344 13.566406 34.550781 13.464844 34.449219 13.464844 C 34.347656 13.667969 34.449219 13.84375 34.449219 14.082031 C 34.449219 14.152344 34.414062 14.289062 34.414062 14.289062 C 34.347656 14.289062 34.210938 14.117188 34.144531 14.015625 L 34.144531 13.429688 L 34.480469 13.015625 C 34.6875 13.152344 34.753906 13.359375 34.6875 13.566406 M 35.636719 13.152344 C 35.636719 13.324219 35.601562 13.464844 35.5 13.566406 C 35.464844 13.429688 35.363281 13.257812 35.195312 13.257812 C 35.058594 13.53125 35.023438 13.632812 35.160156 14.082031 C 35.058594 14.152344 34.957031 14.1875 34.855469 14.289062 C 34.789062 14.117188 34.753906 13.875 34.753906 13.738281 C 34.753906 13.496094 34.820312 13.257812 34.890625 13.050781 C 34.957031 12.914062 35.058594 12.742188 35.160156 12.636719 L 35.535156 12.601562 C 35.398438 12.636719 35.398438 12.808594 35.398438 12.914062 C 35.464844 12.945312 35.636719 12.980469 35.636719 13.152344 M 36.859375 13.359375 C 36.859375 13.667969 36.417969 14.082031 36.417969 14.082031 C 36.417969 13.875 36.484375 13.667969 36.519531 13.464844 C 36.519531 13.464844 36.382812 13.324219 36.214844 13.324219 C 36.113281 13.359375 36.113281 13.464844 36.078125 13.566406 C 35.976562 13.773438 35.773438 13.976562 35.703125 14.1875 C 35.671875 14.1875 35.671875 14.152344 35.671875 14.152344 C 35.671875 13.84375 35.703125 13.1875 35.941406 12.945312 C 36.144531 12.742188 36.246094 12.742188 36.449219 12.707031 L 36.65625 12.742188 L 36.519531 12.945312 C 36.65625 13.015625 36.859375 13.152344 36.859375 13.359375 M 42.59375 13.464844 L 42.492188 13.566406 C 42.390625 13.464844 42.457031 13.152344 42.289062 13.117188 C 42.121094 13.117188 41.984375 12.945312 41.914062 12.914062 L 42.015625 12.84375 C 42.015625 12.84375 42.121094 12.808594 42.1875 12.84375 C 42.253906 12.914062 42.324219 12.945312 42.324219 13.050781 C 42.390625 13.117188 42.492188 13.050781 42.558594 13.117188 C 42.59375 13.222656 42.628906 13.359375 42.59375 13.464844 M 43.816406 12.945312 C 43.78125 13.050781 43.75 13.222656 43.714844 13.359375 C 43.613281 13.152344 43.542969 12.84375 43.308594 12.84375 C 43.273438 12.707031 43.238281 12.601562 43.101562 12.535156 L 42.796875 12.5 C 42.832031 12.601562 43.035156 12.636719 42.933594 12.84375 C 43.035156 12.945312 43.171875 12.945312 43.238281 13.117188 C 43.308594 13.222656 43.238281 13.359375 43.273438 13.464844 L 43.035156 13.566406 C 43.035156 13.359375 43.101562 13.050781 42.832031 12.945312 C 42.628906 13.015625 42.59375 12.742188 42.457031 12.636719 C 42.390625 12.601562 42.390625 12.429688 42.289062 12.535156 C 42.121094 12.636719 41.882812 12.535156 41.710938 12.636719 L 41.882812 12.328125 C 42.015625 12.222656 42.1875 12.292969 42.324219 12.222656 L 42.59375 12.191406 C 42.898438 12.191406 43.136719 12.328125 43.410156 12.429688 C 43.542969 12.535156 43.613281 12.636719 43.613281 12.808594 C 43.714844 12.84375 43.851562 12.84375 43.816406 12.945312 M 49.3125 12.914062 C 49.246094 13.015625 49.214844 13.050781 49.179688 13.117188 C 49.179688 12.945312 48.976562 12.84375 48.839844 12.535156 L 48.976562 12.292969 C 49.113281 12.328125 49.214844 12.429688 49.214844 12.601562 C 49.214844 12.636719 49.179688 12.742188 49.214844 12.808594 C 49.214844 12.84375 49.3125 12.84375 49.3125 12.914062 M 37.84375 13.015625 L 37.742188 13.359375 L 37.503906 12.742188 C 37.199219 12.429688 36.890625 12.394531 36.6875 12.292969 C 36.585938 12.222656 36.585938 12.328125 36.484375 12.292969 C 36.484375 12.191406 36.519531 12.085938 36.621094 11.984375 L 36.824219 11.984375 L 37.027344 12.085938 C 37.164062 12.191406 37.402344 12.191406 37.402344 12.394531 C 37.402344 12.464844 37.367188 12.5 37.4375 12.601562 L 37.808594 12.742188 Z M 48.230469 12.636719 C 48.230469 12.671875 48.160156 12.742188 48.160156 12.742188 C 47.992188 12.636719 47.855469 12.570312 47.652344 12.570312 C 47.652344 12.464844 47.585938 12.292969 47.515625 12.292969 C 47.277344 12.292969 47.3125 12.394531 47.144531 12.394531 L 47.449219 12.085938 C 47.480469 12.019531 47.515625 12.019531 47.585938 12.019531 C 47.6875 12.085938 47.71875 12.121094 47.820312 12.121094 C 47.820312 12.191406 47.820312 12.222656 47.789062 12.328125 C 47.855469 12.394531 47.957031 12.328125 48.027344 12.394531 C 48.128906 12.429688 48.230469 12.5 48.230469 12.636719 M 44.222656 12.84375 L 44.191406 12.84375 C 44.121094 12.742188 44.089844 12.636719 44.019531 12.636719 C 44.121094 12.222656 43.917969 11.914062 43.851562 11.570312 L 43.816406 11.46875 C 43.953125 11.640625 44.222656 11.8125 44.191406 12.019531 C 44.222656 12.328125 44.257812 12.601562 44.222656 12.84375 M 38.386719 12.5 L 38.148438 12.742188 C 38.082031 12.636719 38.148438 12.429688 38.011719 12.328125 C 38.011719 12.292969 38.113281 12.222656 38.082031 12.191406 C 38.011719 12.121094 37.605469 11.984375 37.605469 11.984375 C 37.433594 11.878906 37.300781 11.777344 37.164062 11.605469 C 36.996094 11.570312 36.890625 11.675781 36.722656 11.707031 C 36.6875 11.675781 36.6875 11.605469 36.6875 11.605469 C 36.789062 11.5 36.789062 11.296875 36.996094 11.296875 C 37.097656 11.296875 37.230469 11.296875 37.332031 11.398438 C 37.46875 11.398438 37.539062 11.535156 37.636719 11.570312 C 37.808594 11.777344 37.945312 11.8125 38.082031 11.914062 C 38.046875 12.019531 38.113281 12.085938 38.179688 12.121094 C 38.386719 12.121094 38.316406 12.328125 38.386719 12.5 M 49.554688 11.949219 C 49.554688 12.15625 49.554688 12.222656 49.453125 12.394531 L 49.214844 12.085938 C 49.3125 11.984375 49.3125 11.8125 49.417969 11.675781 C 49.453125 11.675781 49.554688 11.914062 49.554688 11.949219 M 43.511719 12.191406 C 43.339844 12.085938 43.136719 12.085938 43.035156 11.914062 C 42.933594 11.878906 42.796875 11.878906 42.628906 11.878906 C 42.492188 11.914062 42.324219 11.914062 42.1875 11.914062 C 42.152344 11.914062 42.1875 11.878906 42.121094 11.8125 C 41.914062 11.914062 41.675781 11.914062 41.472656 12.121094 L 41.644531 11.707031 C 41.78125 11.707031 41.882812 11.605469 41.984375 11.605469 C 42.085938 11.570312 42.222656 11.570312 42.324219 11.570312 L 42.324219 11.605469 C 42.730469 11.605469 43.171875 11.570312 43.476562 11.914062 Z M 48.601562 11.878906 C 48.601562 12.019531 48.570312 12.050781 48.535156 12.222656 C 48.261719 12.191406 48.296875 11.914062 48.230469 11.878906 C 48.09375 11.675781 47.820312 11.8125 47.617188 11.8125 C 47.585938 11.605469 47.6875 11.605469 47.6875 11.5 C 47.789062 11.5 47.890625 11.398438 47.992188 11.46875 C 48.160156 11.398438 48.261719 11.570312 48.433594 11.570312 C 48.5 11.675781 48.570312 11.8125 48.601562 11.878906 M 38.554688 11.363281 C 38.554688 11.46875 38.519531 11.914062 38.519531 11.914062 C 38.453125 11.640625 38.285156 11.398438 38.082031 11.398438 C 37.945312 11.296875 37.84375 11.191406 37.808594 11.089844 C 37.707031 10.984375 37.605469 11.054688 37.46875 10.984375 C 37.332031 10.984375 37.164062 10.984375 36.996094 11.054688 L 36.996094 10.984375 L 37.230469 10.675781 C 37.503906 10.746094 37.808594 10.675781 37.910156 10.882812 C 38.046875 10.984375 38.214844 11.054688 38.285156 11.15625 L 38.285156 11.261719 C 38.351562 11.296875 38.488281 11.332031 38.554688 11.363281 M 40.046875 11.296875 C 39.914062 11.398438 39.777344 11.398438 39.640625 11.363281 L 39.4375 11.054688 C 39.574219 11.089844 39.777344 11.089844 39.945312 11.054688 Z M 45.992188 11.46875 C 45.992188 11.640625 45.75 11.878906 45.683594 12.019531 C 45.75 11.8125 45.785156 11.46875 45.683594 11.46875 C 45.617188 11.433594 45.480469 11.5 45.480469 11.398438 C 45.480469 11.296875 45.511719 11.15625 45.511719 11.054688 C 45.511719 10.953125 45.410156 10.882812 45.410156 10.78125 C 45.410156 10.574219 45.648438 10.539062 45.71875 10.402344 C 45.785156 10.539062 45.75 10.710938 45.75 10.847656 C 45.785156 10.953125 45.851562 11.15625 45.785156 11.332031 C 45.785156 11.433594 45.992188 11.363281 45.992188 11.46875 M 43.410156 11.46875 C 43.238281 11.46875 43.101562 11.46875 43.003906 11.296875 C 42.96875 11.296875 42.898438 11.191406 42.832031 11.261719 C 42.695312 11.398438 42.492188 11.15625 42.289062 11.191406 C 42.1875 11.296875 42.050781 11.363281 41.914062 11.398438 L 41.882812 11.363281 C 41.882812 11.261719 41.984375 11.15625 42.085938 11.054688 C 42.324219 11.15625 42.492188 10.675781 42.730469 10.953125 C 42.796875 10.984375 42.933594 10.984375 43.003906 10.984375 C 43.238281 11.054688 43.308594 11.296875 43.410156 11.46875 M 41 11.261719 L 40.964844 11.261719 C 40.898438 11.261719 40.660156 11.15625 40.589844 11.054688 C 40.558594 10.984375 40.558594 10.882812 40.558594 10.882812 C 40.660156 10.882812 40.726562 10.847656 40.828125 10.847656 Z M 48.703125 11.46875 C 48.46875 11.46875 48.601562 10.984375 48.09375 10.984375 C 47.957031 10.984375 47.890625 11.15625 47.753906 11.191406 C 47.753906 11.15625 47.789062 10.953125 47.789062 10.953125 C 47.789062 10.847656 47.820312 10.746094 47.957031 10.640625 C 48.230469 10.640625 48.160156 10.746094 48.363281 10.8125 C 48.5 10.847656 48.570312 10.953125 48.703125 10.953125 Z M 45.140625 11.089844 C 45.140625 11.296875 45.039062 11.5 45.003906 11.707031 C 45.003906 11.46875 44.9375 11.296875 44.800781 11.15625 C 44.800781 11.089844 44.902344 11.054688 44.835938 10.984375 C 44.835938 10.984375 44.632812 10.882812 44.632812 10.746094 C 44.632812 10.574219 44.765625 10.46875 44.835938 10.367188 C 44.835938 10.332031 44.96875 10.4375 44.96875 10.640625 C 44.96875 10.710938 44.96875 10.78125 44.9375 10.882812 C 44.902344 10.984375 45.140625 10.984375 45.140625 11.089844 M 46.804688 10.402344 C 46.804688 10.539062 46.734375 10.640625 46.769531 10.78125 C 46.667969 10.574219 46.566406 10.367188 46.464844 10.160156 C 46.429688 10.160156 46.398438 10.160156 46.398438 10.125 L 46.496094 10.058594 C 46.566406 10.058594 46.667969 10.058594 46.667969 10.125 C 46.734375 10.195312 46.804688 10.296875 46.804688 10.402344 M 48.875 10.675781 C 48.769531 10.640625 48.535156 10.605469 48.535156 10.503906 C 48.535156 10.367188 48.46875 10.332031 48.296875 10.332031 C 48.128906 10.332031 48.027344 10.367188 47.820312 10.4375 C 47.820312 10.4375 47.71875 10.296875 47.6875 10.160156 C 47.753906 10.125 48.027344 10.023438 48.160156 10.023438 C 48.402344 10.023438 48.671875 10.023438 48.671875 10.160156 C 48.671875 10.261719 48.875 10.332031 48.875 10.675781 M 39.980469 9.953125 C 39.945312 10.160156 39.84375 10.230469 39.675781 10.46875 C 39.539062 10.539062 39.335938 10.574219 39.132812 10.675781 C 39.164062 10.574219 39.269531 10.539062 39.335938 10.4375 C 39.4375 10.332031 39.539062 10.160156 39.574219 10.023438 C 39.742188 9.953125 39.84375 9.953125 39.980469 9.953125 M 46.296875 10.4375 C 46.296875 10.640625 46.261719 10.917969 46.261719 11.15625 C 46.160156 11.15625 46.160156 11.054688 46.160156 10.953125 C 46.089844 10.746094 46.058594 10.539062 45.992188 10.332031 C 45.886719 10.023438 45.71875 9.78125 45.582031 9.472656 C 45.546875 9.300781 45.378906 9.230469 45.242188 9.128906 C 45.410156 9.128906 45.582031 9.160156 45.71875 9.265625 C 45.71875 9.367188 45.75 9.402344 45.851562 9.507812 C 46.089844 9.507812 46.058594 9.816406 46.261719 9.988281 C 46.261719 10.023438 46.195312 10.023438 46.160156 10.09375 C 46.089844 10.09375 46.058594 10.230469 46.058594 10.230469 C 46.160156 10.296875 46.261719 10.332031 46.296875 10.4375 M 39.335938 9.644531 C 39.234375 9.851562 39.132812 10.058594 38.929688 10.160156 C 38.792969 10.160156 38.625 10.230469 38.417969 10.160156 C 38.519531 10.058594 38.625 10.023438 38.757812 9.953125 L 39.0625 9.644531 Z M 41.371094 10.160156 C 41.269531 10.230469 41.066406 10.261719 40.964844 10.261719 C 40.691406 10.125 40.691406 9.851562 40.457031 9.746094 C 40.421875 9.710938 40.386719 9.644531 40.386719 9.609375 L 40.964844 9.710938 C 40.929688 9.816406 41 9.851562 41.066406 9.851562 C 41.167969 9.953125 41.269531 10.058594 41.371094 10.160156 M 45.378906 10.160156 C 45.34375 10.230469 45.277344 10.261719 45.242188 10.261719 C 45.242188 10.261719 45.070312 10.09375 45.039062 9.953125 C 45.003906 9.78125 45.105469 9.539062 45.105469 9.539062 C 45.140625 9.539062 45.175781 9.609375 45.242188 9.609375 C 45.277344 9.644531 45.242188 9.746094 45.277344 9.851562 C 45.34375 9.953125 45.445312 10.058594 45.378906 10.160156 M 38.386719 9.539062 L 38.214844 10.058594 C 38.046875 10.230469 37.808594 10.160156 37.605469 10.160156 C 37.910156 10.058594 38.113281 9.746094 38.214844 9.539062 C 38.285156 9.507812 38.316406 9.539062 38.386719 9.539062 M 42.59375 9.953125 L 42.492188 9.953125 C 42.085938 10.058594 41.78125 9.816406 41.472656 9.609375 C 41.675781 9.539062 41.847656 9.539062 41.984375 9.507812 L 42.085938 9.507812 L 42.222656 9.710938 C 42.324219 9.746094 42.492188 9.851562 42.59375 9.953125 M 49.179688 9.917969 C 48.945312 9.917969 48.703125 9.816406 48.671875 9.710938 C 48.601562 9.644531 48.636719 9.507812 48.5 9.507812 C 48.402344 9.507812 48.332031 9.609375 48.332031 9.609375 C 48.230469 9.644531 48.027344 9.507812 48.027344 9.609375 C 48.027344 9.78125 47.855469 9.851562 47.71875 9.851562 C 47.617188 9.851562 47.585938 9.851562 47.480469 9.816406 L 47.480469 9.472656 C 47.957031 9.472656 47.921875 9.300781 48.128906 9.300781 C 48.261719 9.300781 48.363281 9.402344 48.5 9.402344 C 48.671875 9.402344 48.570312 9.335938 48.738281 9.335938 C 48.910156 9.335938 48.976562 9.472656 49.113281 9.507812 C 49.113281 9.609375 49.179688 9.746094 49.179688 9.917969 M 37.910156 9.09375 C 37.910156 9.230469 37.808594 9.4375 37.636719 9.609375 C 37.605469 9.644531 37.503906 9.710938 37.503906 9.710938 C 37.503906 9.507812 37.605469 9.300781 37.605469 9.128906 C 37.707031 9.09375 37.808594 9.023438 37.910156 9.09375 M 43.207031 9.539062 C 43.035156 9.539062 42.796875 9.539062 42.664062 9.4375 C 42.457031 9.300781 42.390625 9.230469 42.289062 9.128906 C 42.425781 9.023438 42.59375 9.023438 42.695312 8.992188 C 42.796875 9.128906 42.96875 9.402344 43.207031 9.539062 M 44.902344 9.367188 C 44.902344 9.472656 44.835938 9.507812 44.765625 9.574219 C 44.765625 9.574219 44.632812 9.402344 44.632812 9.300781 C 44.632812 9.195312 44.632812 9.09375 44.664062 8.992188 C 44.765625 9.09375 44.902344 9.230469 44.902344 9.367188 M 46.464844 9.4375 C 46.160156 9.230469 45.957031 8.921875 45.683594 8.613281 C 45.957031 8.613281 46.058594 8.886719 46.261719 8.921875 C 46.328125 8.992188 46.398438 9.023438 46.464844 9.128906 Z M 40.148438 8.578125 C 40.148438 8.820312 40.117188 9.128906 39.878906 9.230469 L 39.777344 8.886719 C 39.914062 8.820312 40.015625 8.714844 40.148438 8.578125 M 39.402344 9.128906 C 39.199219 8.921875 39.027344 8.714844 39.027344 8.507812 C 39.132812 8.507812 39.234375 8.507812 39.335938 8.613281 C 39.335938 8.785156 39.4375 8.921875 39.402344 9.128906 M 49.113281 9.09375 C 48.804688 8.957031 48.363281 8.820312 48.128906 8.820312 C 47.992188 8.820312 47.585938 8.992188 47.414062 9.160156 L 47.347656 8.820312 C 47.585938 8.785156 47.585938 8.613281 47.71875 8.613281 C 47.820312 8.613281 47.957031 8.578125 48.0625 8.578125 C 48.160156 8.578125 48.230469 8.472656 48.296875 8.472656 C 48.433594 8.472656 48.363281 8.679688 48.5 8.679688 C 48.601562 8.679688 48.636719 8.613281 48.738281 8.613281 C 48.910156 8.613281 49.078125 8.886719 49.113281 9.09375 M 40.929688 9.128906 C 40.761719 9.023438 40.457031 8.992188 40.488281 8.785156 C 40.589844 8.613281 40.691406 8.578125 40.761719 8.472656 C 40.796875 8.714844 40.828125 8.921875 40.929688 9.128906 M 44.054688 8.921875 L 43.882812 8.992188 C 43.511719 8.992188 43.308594 8.886719 43.136719 8.714844 C 43.273438 8.714844 43.476562 8.578125 43.476562 8.578125 C 43.648438 8.714844 43.886719 8.886719 44.054688 8.921875 M 37.4375 8.578125 C 37.300781 8.714844 37.128906 8.820312 37.027344 9.023438 C 37.027344 8.921875 36.996094 8.820312 36.960938 8.714844 C 36.996094 8.613281 37.097656 8.507812 37.164062 8.472656 C 37.230469 8.507812 37.332031 8.507812 37.4375 8.578125 M 41.78125 8.992188 C 41.644531 9.023438 41.40625 9.09375 41.304688 8.921875 C 41.101562 8.613281 41.234375 8.300781 41.339844 8.0625 C 41.40625 8.269531 41.441406 8.472656 41.472656 8.679688 C 41.507812 8.820312 41.710938 8.886719 41.78125 8.992188 M 44.460938 8.40625 C 44.324219 8.472656 44.054688 8.507812 43.851562 8.371094 L 44.121094 8.199219 C 44.222656 8.300781 44.359375 8.371094 44.460938 8.40625 M 48.296875 8.300781 C 48.09375 8.300781 48.027344 8.269531 47.855469 8.269531 C 47.71875 8.269531 47.515625 8.371094 47.378906 8.507812 C 47.3125 8.40625 47.347656 8.300781 47.378906 8.199219 C 47.480469 8.09375 47.652344 7.957031 47.820312 7.957031 C 48.0625 7.957031 48.296875 8.164062 48.296875 8.300781 M 38.285156 8.679688 C 38.046875 8.613281 37.808594 8.40625 37.707031 8.199219 C 37.636719 8.0625 37.605469 7.890625 37.605469 7.75 C 37.742188 7.785156 37.84375 7.890625 37.910156 7.957031 L 37.910156 7.992188 C 38.046875 8.199219 38.25 8.40625 38.285156 8.679688 M 38.726562 8.09375 L 38.65625 8.578125 C 38.519531 8.371094 38.417969 8.164062 38.386719 7.890625 Z M 42.222656 8.507812 C 42.015625 8.578125 41.882812 8.40625 41.746094 8.300781 C 41.644531 8.09375 41.644531 7.890625 41.578125 7.75 C 41.746094 7.890625 42.015625 7.890625 41.984375 8.199219 C 41.984375 8.300781 42.121094 8.40625 42.222656 8.507812 M 43.035156 8.09375 C 42.832031 8.09375 42.59375 8.199219 42.492188 7.992188 C 42.558594 7.957031 42.628906 7.855469 42.730469 7.785156 Z M 48.332031 7.75 C 48.09375 7.683594 47.921875 7.613281 47.71875 7.613281 C 47.617188 7.613281 47.3125 7.683594 47.277344 7.75 C 47.175781 7.648438 47.347656 7.339844 47.480469 7.269531 C 47.617188 7.203125 47.71875 7.238281 47.789062 7.269531 C 47.789062 7.476562 48.027344 7.375 48.160156 7.441406 C 48.230469 7.542969 48.296875 7.648438 48.332031 7.75 M 43.679688 7.578125 C 43.613281 7.683594 43.511719 7.578125 43.441406 7.578125 L 43.136719 7.578125 C 43.101562 7.476562 43.070312 7.441406 43.035156 7.375 C 43.207031 7.339844 43.308594 7.269531 43.410156 7.339844 C 43.511719 7.441406 43.542969 7.578125 43.679688 7.578125 M 40.761719 7.03125 C 40.726562 7.238281 40.660156 7.578125 40.457031 7.683594 C 40.457031 7.578125 40.355469 7.476562 40.285156 7.375 C 40.253906 7.375 40.285156 7.476562 40.253906 7.476562 C 40.253906 7.578125 40.21875 7.683594 40.21875 7.855469 C 40.117188 7.890625 39.980469 7.957031 39.84375 7.890625 L 39.84375 7.785156 C 39.777344 7.683594 39.777344 7.578125 39.777344 7.476562 L 39.742188 7.441406 C 39.675781 7.476562 39.675781 7.578125 39.675781 7.648438 C 39.640625 7.683594 39.539062 7.785156 39.539062 7.890625 C 39.4375 7.890625 39.335938 7.855469 39.234375 7.785156 L 39.234375 7.441406 C 39.234375 7.375 39.234375 7.375 39.199219 7.375 L 39.027344 7.578125 C 38.894531 7.441406 38.859375 7.167969 38.859375 6.960938 C 39.4375 6.652344 40.117188 6.753906 40.558594 6.925781 C 40.625 6.960938 40.691406 6.960938 40.761719 7.03125 M 43.410156 6.753906 C 43.207031 6.753906 43.101562 6.652344 43.003906 6.445312 C 43.003906 6.34375 42.96875 6.203125 43.003906 6.03125 C 43.035156 6.136719 43.070312 6.238281 43.136719 6.304688 C 43.273438 6.238281 43.273438 6.410156 43.308594 6.445312 C 43.339844 6.546875 43.410156 6.652344 43.410156 6.753906 M 42.664062 5.066406 C 42.664062 5.101562 42.59375 5.378906 42.59375 5.378906 L 42.324219 5.480469 L 42.492188 4.691406 C 42.558594 4.828125 42.664062 4.964844 42.664062 5.066406 M 37.265625 4.484375 L 37.128906 4.691406 C 37.164062 5.066406 36.996094 5.308594 36.996094 5.617188 L 36.824219 5.066406 C 36.859375 4.894531 36.894531 4.757812 36.996094 4.585938 Z M 42.59375 6.652344 C 42.1875 6.410156 41.710938 6.238281 41.203125 6.203125 C 41.203125 6.304688 41.203125 6.410156 41.167969 6.445312 C 41.578125 6.652344 41.984375 6.855469 42.324219 7.167969 L 42.324219 7.476562 C 41.984375 7.132812 41.578125 6.753906 41.101562 6.652344 C 41.066406 6.71875 40.964844 6.824219 40.898438 6.925781 C 40.660156 6.753906 40.386719 6.617188 40.082031 6.546875 C 39.980469 6.546875 39.945312 6.410156 39.945312 6.304688 L 39.914062 6.136719 C 40.082031 6.101562 40.21875 5.960938 40.253906 5.792969 C 40.285156 5.824219 40.355469 5.824219 40.421875 5.824219 C 40.488281 5.792969 40.488281 5.722656 40.488281 5.617188 C 40.488281 5.414062 40.050781 5.414062 39.84375 5.414062 C 39.609375 5.414062 39.4375 5.378906 39.269531 5.515625 C 39.199219 5.515625 39.234375 5.617188 39.234375 5.6875 C 39.234375 5.722656 39.335938 5.792969 39.335938 5.792969 C 39.4375 5.792969 39.472656 5.722656 39.539062 5.722656 C 39.503906 5.929688 39.609375 6.066406 39.777344 6.136719 L 39.742188 6.445312 C 39.640625 6.546875 39.472656 6.480469 39.335938 6.546875 C 39.132812 6.652344 38.929688 6.753906 38.726562 6.855469 C 38.625 6.753906 38.554688 6.652344 38.488281 6.546875 C 38.148438 6.652344 37.945312 6.855469 37.605469 7.0625 C 37.503906 7.132812 37.332031 7.269531 37.332031 7.269531 C 37.300781 7.238281 37.332031 7.132812 37.332031 7.03125 C 37.636719 6.71875 38.046875 6.617188 38.386719 6.410156 L 38.386719 6.136719 C 38.25 6.101562 38.113281 6.136719 37.945312 6.136719 C 37.636719 6.203125 37.332031 6.34375 37.097656 6.511719 C 37.097656 6.410156 37.027344 6.304688 37.128906 6.238281 C 37.503906 6.03125 37.945312 5.894531 38.417969 5.929688 L 38.417969 5.792969 C 38.386719 5.722656 38.386719 5.617188 38.316406 5.617188 C 38.113281 5.378906 37.910156 5.101562 37.910156 4.863281 L 38.011719 4.792969 C 37.945312 4.585938 37.910156 4.070312 38.011719 3.828125 C 37.808594 3.761719 37.605469 3.554688 37.539062 3.417969 C 37.46875 3.246094 37.402344 3.140625 37.367188 2.933594 C 37.4375 2.730469 37.539062 2.625 37.636719 2.417969 C 37.707031 2.417969 37.808594 2.386719 37.84375 2.316406 C 38.011719 2.28125 38.148438 2.109375 38.351562 2.214844 C 38.488281 2.214844 38.625 2.28125 38.726562 2.316406 C 38.726562 2.386719 38.726562 2.417969 38.828125 2.488281 C 39.027344 2.523438 39.027344 2.730469 39.132812 2.902344 C 39.234375 2.933594 39.335938 2.933594 39.4375 2.933594 C 39.640625 3.003906 39.777344 3.003906 39.878906 3.109375 C 40.148438 2.933594 40.457031 2.902344 40.761719 2.933594 C 40.796875 2.796875 40.863281 2.695312 40.898438 2.523438 C 40.964844 2.589844 40.929688 2.488281 41 2.488281 C 41.167969 2.386719 41.339844 2.210938 41.578125 2.28125 C 41.746094 2.386719 41.984375 2.316406 42.085938 2.523438 C 42.222656 2.625 42.289062 2.832031 42.390625 3.039062 C 42.289062 3.246094 42.390625 3.554688 42.1875 3.65625 L 41.984375 3.863281 C 41.914062 3.863281 41.882812 3.933594 41.78125 3.933594 C 41.882812 4.171875 41.8125 4.554688 41.710938 4.792969 C 41.78125 4.757812 41.882812 4.757812 41.914062 4.65625 C 41.949219 4.691406 41.914062 4.757812 41.914062 4.792969 C 41.882812 4.863281 41.882812 4.894531 41.882812 4.894531 C 41.914062 5.101562 41.78125 5.273438 41.644531 5.414062 C 41.578125 5.617188 41.40625 5.894531 41.167969 5.929688 L 41.167969 6.03125 C 41.675781 6.03125 42.121094 6.136719 42.59375 6.410156 Z M 50.230469 4.378906 C 50.128906 4.277344 50.027344 4.171875 49.890625 4.171875 C 49.789062 4.035156 49.65625 3.863281 49.519531 3.863281 C 49.621094 3.828125 49.757812 3.761719 49.925781 3.761719 C 50.027344 3.933594 50.128906 4.070312 50.164062 4.171875 Z M 37.199219 3.96875 L 36.960938 4.070312 L 36.996094 3.863281 C 37.0625 3.761719 37.097656 3.65625 37.199219 3.554688 Z M 49.148438 3.625 C 49.011719 3.625 48.910156 3.65625 48.769531 3.625 C 48.703125 3.554688 48.601562 3.625 48.535156 3.65625 C 48.46875 3.65625 48.402344 3.625 48.296875 3.554688 C 48.5 3.554688 48.601562 3.417969 48.769531 3.347656 C 48.910156 3.453125 49.042969 3.519531 49.148438 3.625 M 41.644531 13.566406 C 41.644531 13.429688 41.542969 13.359375 41.40625 13.359375 C 41.304688 13.359375 41.167969 13.496094 41.167969 13.566406 C 41.167969 13.703125 41.066406 14.496094 41.066406 14.496094 L 41.339844 14.496094 C 41.441406 14.152344 41.644531 13.738281 41.644531 13.566406 M 40.863281 13.53125 L 40.828125 13.53125 L 40.558594 13.257812 L 40.523438 13.257812 C 40.457031 13.324219 40.421875 13.429688 40.355469 13.53125 C 40.355469 13.84375 40.457031 14.1875 40.523438 14.496094 L 40.828125 14.496094 C 40.828125 14.152344 40.863281 13.84375 40.863281 13.53125 M 46.328125 13.117188 L 45.992188 13.152344 C 46.089844 13.257812 46.089844 13.394531 46.089844 13.464844 C 46.089844 13.566406 46.058594 13.667969 45.992188 13.738281 C 45.886719 13.667969 45.886719 13.566406 45.820312 13.464844 C 45.75 13.464844 45.71875 13.632812 45.71875 13.703125 C 45.71875 14.046875 45.851562 14.289062 45.957031 14.496094 L 46.296875 14.496094 C 46.261719 14.1875 46.195312 13.945312 46.195312 13.632812 C 46.195312 13.464844 46.296875 13.257812 46.328125 13.117188 M 54 9.816406 C 54 8.371094 53.523438 6.824219 52.234375 5.515625 C 52.027344 5.308594 51.761719 5.066406 51.488281 4.894531 C 50.976562 4.554688 50.503906 4.070312 50.230469 3.554688 C 50.0625 3.347656 49.925781 3.246094 49.722656 3.140625 C 49.757812 3.246094 49.824219 3.347656 49.855469 3.453125 L 49.824219 3.453125 C 49.621094 3.453125 49.453125 3.347656 49.3125 3.246094 L 49.453125 3.105469 C 49.417969 3.039062 49.3125 3.039062 49.246094 3.039062 C 48.636719 2.933594 48.128906 3.246094 47.585938 3.347656 L 47.585938 3.417969 C 47.925781 3.554688 47.992188 3.96875 48.195312 4.171875 L 48.402344 4.171875 C 48.5 4.171875 48.601562 4.277344 48.671875 4.242188 C 48.671875 4.171875 48.601562 4.070312 48.601562 4.035156 C 48.671875 3.96875 48.738281 3.96875 48.804688 4.035156 C 48.976562 4.140625 49.246094 3.96875 49.382812 4.242188 C 49.179688 4.242188 48.976562 4.277344 48.804688 4.34375 C 48.804688 4.378906 48.910156 4.484375 48.875 4.554688 C 48.703125 4.484375 48.5 4.554688 48.402344 4.378906 L 48.363281 4.449219 C 48.601562 4.691406 48.910156 4.894531 49.214844 5 C 49.6875 5.101562 50.097656 4.863281 50.539062 4.964844 C 51.046875 5.207031 51.453125 5.515625 51.792969 5.859375 C 52.914062 7.0625 53.320312 8.335938 53.320312 9.472656 C 53.320312 10.882812 52.914062 11.878906 52.304688 12.5 C 51.929688 12.878906 51.453125 13.222656 50.875 13.222656 C 50.742188 13.222656 50.46875 13.1875 50.300781 13.050781 C 50.402344 12.636719 50.46875 12.191406 50.46875 11.535156 C 50.46875 11.15625 50.46875 10.160156 49.996094 8.992188 C 49.890625 8.75 49.519531 7.992188 49.042969 7.476562 C 48.671875 7.097656 48.230469 6.753906 47.789062 6.753906 C 47.585938 6.753906 47.378906 6.789062 47.210938 6.925781 C 47.042969 7.097656 46.9375 7.375 46.972656 7.578125 C 46.667969 7.75 46.226562 7.890625 45.851562 7.890625 C 45.410156 7.890625 44.9375 7.648438 44.527344 7.375 L 44.527344 6.855469 C 44.292969 6.753906 44.222656 6.652344 44.191406 6.445312 L 44.222656 6.410156 C 44.324219 6.445312 44.394531 6.511719 44.460938 6.546875 C 44.425781 6.304688 44.394531 6.03125 44.257812 5.824219 C 44.15625 5.824219 44.054688 5.792969 43.953125 5.722656 C 43.816406 5.617188 43.75 5.480469 43.75 5.308594 C 43.851562 5.480469 44.019531 5.414062 44.121094 5.515625 C 43.953125 5.101562 44.019531 4.894531 43.714844 4.242188 C 43.613281 3.933594 43.308594 3.761719 43.101562 3.554688 C 43.003906 3.449219 42.96875 3.347656 42.796875 3.347656 C 42.695312 3.3125 42.695312 3.140625 42.664062 3.039062 C 42.730469 3.039062 42.796875 3.105469 42.867188 3.140625 C 42.695312 2.625 42.527344 2.109375 42.050781 1.800781 L 41.984375 1.867188 C 41.78125 1.902344 41.578125 1.902344 41.40625 1.902344 C 41.472656 1.800781 41.609375 1.765625 41.746094 1.695312 C 41.609375 1.59375 41.507812 1.558594 41.304688 1.558594 C 41.238281 1.59375 41.066406 1.695312 40.929688 1.695312 L 40.898438 1.695312 C 40.898438 1.59375 40.863281 1.457031 41.066406 1.386719 C 40.863281 1.351562 40.691406 1.351562 40.457031 1.386719 C 40.421875 1.558594 40.285156 1.664062 40.285156 1.800781 C 40.183594 1.902344 40.148438 2.007812 40.050781 2.109375 C 40.050781 1.867188 40.148438 1.664062 40.183594 1.457031 C 40.050781 1.488281 39.878906 1.59375 39.777344 1.59375 C 39.503906 1.457031 39.164062 1.285156 39.027344 1.285156 C 39.234375 1.457031 39.132812 1.695312 39.164062 1.902344 L 39.027344 1.800781 C 38.960938 1.664062 38.828125 1.558594 38.757812 1.386719 C 38.554688 1.386719 38.417969 1.457031 38.25 1.558594 L 38.214844 1.59375 C 38.351562 1.59375 38.488281 1.695312 38.554688 1.800781 C 38.316406 1.800781 38.148438 1.695312 37.910156 1.695312 C 37.910156 1.695312 37.910156 1.664062 37.84375 1.664062 C 37.742188 1.695312 37.636719 1.800781 37.570312 1.867188 C 37.332031 2.074219 37.164062 2.28125 37.027344 2.589844 C 37.097656 2.589844 37.199219 2.589844 37.230469 2.625 C 37.128906 2.695312 37.027344 2.832031 36.890625 2.902344 L 36.890625 3.417969 C 36.789062 3.554688 36.65625 3.65625 36.585938 3.828125 C 36.417969 4.449219 36.382812 5.101562 36.382812 5.824219 C 36.316406 5.929688 36.246094 5.960938 36.179688 5.996094 L 36.179688 6.617188 C 36.179688 6.617188 36.417969 6.375 36.519531 6.304688 C 36.519531 6.445312 36.484375 6.652344 36.484375 6.789062 C 36.382812 6.789062 36.246094 6.925781 36.246094 7.0625 C 36.246094 7.203125 36.28125 7.339844 36.28125 7.476562 C 36.28125 7.542969 36.28125 7.578125 36.316406 7.648438 C 36.347656 7.578125 36.417969 7.476562 36.484375 7.441406 C 36.519531 7.441406 36.585938 7.375 36.6875 7.375 C 36.621094 7.476562 36.585938 7.648438 36.519531 7.785156 L 36.417969 7.890625 C 36.417969 7.890625 36.382812 7.957031 36.382812 7.992188 C 36.484375 8.714844 36.722656 9.402344 36.996094 10.125 C 36.757812 10.605469 36.519531 11.125 36.417969 11.5 C 36.316406 11.777344 36.179688 12.328125 36.179688 12.328125 C 36.011719 12.15625 35.773438 12.121094 35.566406 12.121094 C 35.332031 12.15625 35.128906 12.222656 34.957031 12.429688 C 34.753906 12.328125 34.480469 12.363281 34.347656 12.535156 C 34.042969 12.808594 34.042969 12.945312 34.042969 13.152344 C 33.9375 13.257812 33.804688 13.429688 33.804688 13.667969 C 33.804688 14.015625 33.871094 14.21875 34.042969 14.496094 L 39.4375 14.496094 C 39.371094 14.390625 39.300781 14.253906 39.234375 14.152344 C 39.132812 13.945312 39.199219 13.667969 39.199219 13.464844 C 39.300781 13.257812 39.4375 13.050781 39.539062 12.84375 C 39.574219 12.742188 39.539062 12.742188 39.609375 12.707031 L 39.84375 12.601562 C 39.980469 12.601562 40.082031 12.535156 40.253906 12.535156 C 40.386719 12.707031 40.386719 12.394531 40.558594 12.328125 C 40.964844 12.292969 41.304688 12.328125 41.507812 12.636719 C 41.507812 12.707031 41.578125 12.707031 41.578125 12.742188 L 41.40625 12.742188 C 41.203125 12.636719 40.929688 12.535156 40.691406 12.636719 C 40.691406 12.742188 40.660156 12.742188 40.660156 12.84375 L 40.660156 13.015625 C 40.796875 13.050781 40.898438 13.152344 41.03125 13.257812 C 41.101562 13.117188 41.304688 13.015625 41.472656 13.015625 C 41.644531 13.015625 41.914062 13.117188 41.914062 13.429688 C 41.914062 13.566406 41.882812 13.703125 41.882812 13.84375 C 42.015625 13.945312 42.222656 13.976562 42.390625 14.082031 C 42.324219 14.1875 42.222656 14.1875 42.121094 14.1875 L 41.8125 14.1875 C 41.78125 14.152344 41.710938 14.152344 41.710938 14.082031 C 41.609375 14.1875 41.542969 14.359375 41.472656 14.496094 L 45.617188 14.496094 C 45.546875 14.359375 45.480469 14.253906 45.445312 14.152344 C 45.34375 13.945312 45.378906 13.667969 45.34375 13.464844 L 45.75 12.914062 C 45.957031 12.914062 46.160156 12.84375 46.53125 12.808594 C 46.597656 12.707031 46.53125 12.636719 46.835938 12.601562 C 47.109375 12.601562 47.277344 12.707031 47.347656 12.742188 C 47.378906 12.808594 47.378906 12.808594 47.347656 12.878906 C 47.277344 12.945312 47.144531 12.808594 47.042969 12.84375 C 46.972656 12.914062 47.074219 12.945312 47.074219 13.015625 C 47.144531 13.085938 46.769531 12.945312 46.769531 12.945312 C 46.769531 12.945312 46.667969 13.152344 46.632812 13.257812 C 46.632812 13.257812 46.804688 13.359375 46.835938 13.464844 C 46.90625 13.566406 46.769531 13.667969 46.769531 13.773438 C 46.667969 13.738281 46.566406 13.632812 46.53125 13.667969 C 46.464844 13.945312 46.53125 14.1875 46.496094 14.496094 L 46.871094 14.496094 L 46.9375 13.875 C 46.972656 13.53125 47.378906 12.878906 47.617188 12.878906 C 47.789062 12.878906 47.855469 12.945312 47.992188 13.050781 C 48.09375 13.152344 48.230469 13.257812 48.230469 13.324219 C 48.230469 13.359375 48.128906 13.429688 47.957031 13.429688 C 47.890625 13.429688 47.855469 13.324219 47.789062 13.257812 L 47.585938 13.464844 C 47.585938 13.464844 47.820312 13.667969 47.820312 13.84375 C 47.820312 13.976562 47.789062 14.082031 47.652344 14.152344 L 47.449219 13.738281 C 47.347656 13.738281 47.175781 13.945312 47.175781 14.082031 C 47.175781 14.21875 47.109375 14.289062 47.109375 14.496094 L 49.3125 14.496094 C 49.554688 14.496094 49.757812 14.425781 49.996094 14.289062 L 50.433594 14.289062 C 51.046875 14.289062 51.828125 14.1875 52.640625 13.394531 C 53.933594 12.15625 54 10.46875 54 9.816406 M 40.253906 14.496094 C 40.082031 14.152344 40.050781 13.667969 40.050781 13.566406 C 40.050781 13.359375 40.050781 13.117188 40.148438 12.945312 L 39.742188 13.050781 C 39.675781 13.152344 39.640625 13.257812 39.640625 13.324219 L 39.777344 13.257812 C 39.84375 13.257812 39.878906 13.324219 39.914062 13.359375 C 39.878906 13.566406 39.675781 13.566406 39.574219 13.632812 C 39.472656 13.976562 39.777344 14.1875 39.84375 14.496094 Z M 40.253906 14.496094 "/>
</g>
</svg>
