<?xml version="1.0" encoding="UTF-8"?>
<svg xmlns="http://www.w3.org/2000/svg" xmlns:xlink="http://www.w3.org/1999/xlink" width="50px" height="25px" viewBox="0 0 32 16" version="1.1">
<defs>
<linearGradient id="linear0" gradientUnits="userSpaceOnUse" x1="223.43" y1="222.58" x2="377.75" y2="222.58" gradientTransform="matrix(0.0519467,0,0,0.0519467,-10.450997,-0.143649)">
<stop offset="0" style="stop-color:rgb(78.823529%,38.039216%,20.392157%);stop-opacity:1;"/>
<stop offset="1" style="stop-color:rgb(44.705882%,20%,21.960784%);stop-opacity:1;"/>
</linearGradient>
<linearGradient id="linear1" gradientUnits="userSpaceOnUse" x1="210.7" y1="209.15" x2="306.08" y2="192.33" gradientTransform="matrix(0.0519467,0,0,0.0519467,-10.450997,-0.143649)">
<stop offset="0" style="stop-color:rgb(100%,85.882353%,51.764706%);stop-opacity:1;"/>
<stop offset="1" style="stop-color:rgb(94.509804%,47.45098%,18.823529%);stop-opacity:1;"/>
</linearGradient>
<filter id="alpha" filterUnits="objectBoundingBox" x="0%" y="0%" width="100%" height="100%">
  <feColorMatrix type="matrix" in="SourceGraphic" values="0 0 0 0 1 0 0 0 0 1 0 0 0 0 1 0 0 0 1 0"/>
</filter>
<mask id="mask0">
  <g filter="url(#alpha)">
<rect x="0" y="0" width="32" height="16" style="fill:rgb(0%,0%,0%);fill-opacity:0.45098;stroke:none;"/>
  </g>
</mask>
<clipPath id="clip1">
  <rect x="0" y="0" width="32" height="16"/>
</clipPath>
<g id="surface5" clip-path="url(#clip1)">
<path style=" stroke:none;fill-rule:nonzero;fill:rgb(30.980392%,15.294118%,29.019608%);fill-opacity:1;" d="M 8.726562 10.421875 L 8.242188 10.347656 L 8.175781 10.335938 C 8.054688 10.300781 7.949219 10.226562 7.875 10.125 C 7.804688 10.023438 7.644531 9.84375 7.554688 9.730469 C 7.429688 9.574219 7.148438 9.433594 7.105469 9.367188 C 7.058594 9.296875 7.019531 9.222656 6.980469 9.148438 C 6.957031 9.09375 6.902344 9.0625 6.84375 9.070312 C 6.769531 9.074219 6.761719 9.101562 6.703125 9.101562 C 6.652344 9.105469 6.601562 9.101562 6.550781 9.09375 C 6.523438 9.085938 6.492188 9.082031 6.460938 9.082031 C 6.421875 9.144531 6.363281 9.183594 6.21875 9.183594 C 6.210938 9.183594 6.203125 9.183594 6.195312 9.183594 C 6.210938 9.214844 6.34375 9.234375 6.367188 9.234375 C 6.386719 9.234375 6.515625 9.269531 6.542969 9.273438 C 6.59375 9.273438 6.644531 9.289062 6.683594 9.320312 C 6.839844 9.40625 7.070312 9.652344 7.117188 9.867188 C 7.140625 9.984375 7.34375 10.179688 7.367188 10.285156 C 7.097656 10.265625 6.738281 10.085938 6.738281 10.085938 L 6.691406 10.066406 C 6.5625 10.007812 6.425781 9.976562 6.285156 9.972656 C 5.816406 9.933594 5.640625 9.871094 5.59375 9.855469 C 5.5 9.820312 5.511719 9.804688 5.433594 9.800781 L 5.394531 9.800781 C 5.382812 9.820312 5.367188 9.839844 5.351562 9.855469 C 5.269531 9.929688 5.195312 10.015625 5.132812 10.109375 C 5.113281 10.140625 5.078125 10.164062 5.042969 10.171875 C 5.128906 10.148438 5.304688 10.101562 5.304688 10.101562 C 5.46875 10.082031 5.71875 10.15625 5.71875 10.15625 C 5.804688 10.175781 5.886719 10.203125 5.964844 10.234375 C 5.964844 10.234375 6.628906 10.433594 6.789062 10.554688 C 6.898438 10.632812 7.449219 10.835938 7.59375 10.886719 C 7.765625 10.960938 7.933594 11.039062 8.09375 11.128906 C 8.183594 11.207031 8.71875 11.441406 8.863281 11.488281 C 9.046875 11.191406 9.117188 10.835938 9.066406 10.492188 Z M 8.480469 9.871094 C 8.449219 9.871094 8.414062 9.875 8.378906 9.882812 L 8.25 9.960938 C 8.234375 9.988281 8.292969 10.023438 8.292969 10.023438 C 8.292969 10.023438 8.460938 10.03125 8.460938 10.074219 C 8.582031 10.140625 8.84375 10.144531 8.980469 10.152344 C 8.960938 10.109375 8.941406 10.0625 8.917969 10.019531 C 8.898438 9.976562 8.875 9.933594 8.851562 9.890625 C 8.839844 9.890625 8.738281 9.863281 8.480469 9.867188 Z M 7.496094 11.492188 C 7.496094 11.492188 7.464844 11.453125 7.296875 11.449219 C 7.1875 11.449219 7.34375 11.703125 7.34375 11.703125 C 7.4375 11.769531 7.789062 11.867188 7.863281 11.878906 C 7.9375 11.886719 8.179688 11.960938 8.179688 11.960938 C 8.265625 11.972656 8.351562 11.992188 8.433594 12.015625 L 8.496094 11.960938 C 8.566406 11.890625 8.636719 11.8125 8.699219 11.734375 C 8.402344 11.726562 7.988281 11.722656 7.667969 11.558594 C 7.636719 11.464844 7.496094 11.492188 7.496094 11.492188 Z M 7.496094 11.492188 "/>
</g>
<linearGradient id="linear2" gradientUnits="userSpaceOnUse" x1="275.79" y1="104.05" x2="331.01" y2="159.28" gradientTransform="matrix(0.0519467,0,0,0.0519467,-10.450997,-0.143649)">
<stop offset="0" style="stop-color:rgb(17.254902%,22.745098%,57.254902%);stop-opacity:1;"/>
<stop offset="1" style="stop-color:rgb(13.72549%,17.647059%,48.235294%);stop-opacity:1;"/>
</linearGradient>
</defs>
<g id="surface1">
<path style=" stroke:none;fill-rule:nonzero;fill:rgb(17.254902%,22.745098%,57.254902%);fill-opacity:1;" d="M 22.257812 8.550781 C 22.167969 9.121094 21.875 9.421875 21.523438 9.421875 C 21.296875 9.421875 21.167969 9.265625 21.207031 9.019531 L 21.332031 8.246094 C 21.378906 7.960938 21.550781 7.734375 21.855469 7.734375 C 22.195312 7.734375 22.351562 7.964844 22.257812 8.550781 Z M 21.046875 9.6875 C 21.097656 9.6875 21.210938 9.890625 21.585938 9.890625 C 22.378906 9.890625 22.832031 9.316406 22.957031 8.578125 C 23.113281 7.664062 22.671875 7.25 22.113281 7.25 C 21.847656 7.25 21.652344 7.269531 21.507812 7.347656 L 21.722656 6.09375 L 21.066406 6.09375 L 20.410156 9.847656 L 20.90625 9.847656 C 20.90625 9.847656 20.980469 9.691406 21.054688 9.691406 L 21.050781 9.691406 Z M 28.054688 8.089844 C 28.15625 7.519531 27.949219 7.242188 27.332031 7.242188 C 26.871094 7.242188 26.691406 7.445312 26.523438 7.617188 L 26.542969 7.300781 L 25.929688 7.300781 L 25.882812 7.769531 L 25.53125 9.839844 L 26.199219 9.839844 L 26.414062 8.496094 C 26.488281 8.03125 26.808594 7.679688 27.109375 7.679688 C 27.445312 7.679688 27.441406 7.871094 27.386719 8.164062 L 27.097656 9.839844 L 27.757812 9.839844 Z M 30.84375 7.25 L 30.066406 7.25 L 29.171875 8.195312 L 29.15625 8.195312 L 29.515625 6.097656 L 28.863281 6.097656 L 28.210938 9.847656 L 28.875 9.847656 L 28.941406 9.46875 L 29.074219 8.648438 C 29.421875 8.648438 29.617188 8.6875 29.769531 9.378906 L 29.875 9.84375 L 30.550781 9.84375 L 30.273438 8.859375 C 30.160156 8.570312 30.03125 8.375 29.765625 8.320312 Z M 11.703125 8.167969 C 12.085938 8.082031 12.394531 7.796875 12.503906 7.421875 C 12.675781 6.722656 12.363281 6.179688 11.476562 6.1875 L 10.457031 6.1875 L 9.820312 9.847656 L 10.484375 9.847656 L 10.746094 8.378906 C 11.359375 8.359375 11.433594 8.511719 11.554688 9.222656 L 11.660156 9.851562 L 12.347656 9.851562 L 12.144531 8.832031 C 12.074219 8.527344 11.96875 8.292969 11.675781 8.183594 Z M 11.839844 7.296875 C 11.796875 7.605469 11.535156 7.839844 11.222656 7.847656 L 10.832031 7.847656 L 11.035156 6.691406 L 11.390625 6.691406 C 11.808594 6.695312 11.890625 6.972656 11.839844 7.296875 Z M 14.839844 7.988281 C 14.933594 7.433594 14.636719 7.242188 14.039062 7.242188 C 13.292969 7.242188 12.96875 7.597656 12.96875 7.597656 L 13.199219 7.984375 C 13.390625 7.792969 13.652344 7.691406 13.917969 7.703125 C 14.1875 7.703125 14.195312 7.835938 14.167969 7.984375 L 14.113281 8.3125 C 13.15625 8.289062 12.664062 8.492188 12.554688 9.125 C 12.464844 9.640625 12.847656 9.886719 13.28125 9.886719 C 13.515625 9.902344 13.742188 9.820312 13.910156 9.664062 C 13.933594 9.765625 14.015625 9.84375 14.117188 9.867188 C 14.265625 9.894531 14.421875 9.875 14.5625 9.8125 C 14.566406 9.566406 14.59375 9.320312 14.644531 9.082031 Z M 14.050781 8.660156 C 13.941406 9.414062 13.84375 9.492188 13.480469 9.492188 C 13.230469 9.492188 13.140625 9.320312 13.179688 9.097656 C 13.238281 8.792969 13.46875 8.660156 14.050781 8.660156 Z M 25.367188 7.988281 C 25.464844 7.433594 25.167969 7.242188 24.570312 7.242188 C 23.824219 7.242188 23.5 7.597656 23.5 7.597656 L 23.730469 7.984375 C 23.917969 7.792969 24.179688 7.691406 24.449219 7.703125 C 24.71875 7.703125 24.722656 7.835938 24.699219 7.984375 L 24.644531 8.3125 C 23.683594 8.289062 23.195312 8.492188 23.082031 9.125 C 22.992188 9.640625 23.378906 9.890625 23.8125 9.890625 C 24.042969 9.902344 24.269531 9.820312 24.441406 9.664062 C 24.464844 9.765625 24.542969 9.84375 24.644531 9.867188 C 24.796875 9.894531 24.953125 9.875 25.09375 9.8125 C 25.09375 9.566406 25.121094 9.320312 25.175781 9.082031 Z M 24.582031 8.660156 C 24.472656 9.414062 24.375 9.492188 24.011719 9.492188 C 23.761719 9.492188 23.671875 9.320312 23.710938 9.097656 C 23.769531 8.792969 24 8.660156 24.582031 8.660156 Z M 16.167969 9.890625 C 16.964844 9.890625 17.417969 9.316406 17.539062 8.574219 C 17.699219 7.664062 17.253906 7.246094 16.695312 7.246094 C 16.433594 7.246094 16.246094 7.269531 16.09375 7.347656 L 16.308594 6.09375 L 15.648438 6.09375 L 14.996094 9.84375 L 15.492188 9.84375 C 15.492188 9.84375 15.5625 9.6875 15.636719 9.6875 C 15.683594 9.6875 15.796875 9.890625 16.171875 9.890625 Z M 16.445312 7.738281 C 16.785156 7.738281 16.929688 7.96875 16.851562 8.554688 C 16.769531 9.140625 16.464844 9.425781 16.109375 9.425781 C 15.882812 9.425781 15.753906 9.265625 15.796875 9.023438 L 15.921875 8.25 C 15.96875 7.960938 16.140625 7.738281 16.441406 7.738281 L 16.449219 7.738281 Z M 17.820312 8.78125 C 17.921875 7.828125 18.351562 7.238281 19.375 7.238281 C 20.136719 7.238281 20.386719 7.816406 20.28125 8.441406 C 20.117188 9.4375 19.730469 9.90625 18.757812 9.90625 C 18.125 9.902344 17.753906 9.390625 17.816406 8.78125 Z M 19.589844 8.488281 C 19.640625 8.222656 19.691406 7.710938 19.238281 7.710938 C 18.929688 7.710938 18.648438 7.917969 18.519531 8.640625 C 18.441406 9.085938 18.527344 9.441406 18.878906 9.441406 C 19.140625 9.4375 19.457031 9.226562 19.59375 8.484375 Z M 19.589844 8.488281 "/>
<path style=" stroke:none;fill-rule:nonzero;fill:url(#linear0);" d="M 8.507812 9.464844 C 8.671875 9.628906 8.808594 9.8125 8.914062 10.019531 C 9.226562 10.652344 9.113281 11.351562 8.492188 11.957031 C 7.777344 12.65625 6.570312 13.085938 5.164062 13.085938 C 3.757812 13.085938 2.546875 12.65625 1.835938 11.957031 C 1.214844 11.351562 1.101562 10.652344 1.414062 10.019531 C 1.515625 9.8125 1.65625 9.628906 1.820312 9.464844 C 1.621094 9.660156 1.464844 9.832031 1.320312 10.113281 C 1.015625 10.722656 1.113281 11.589844 1.757812 12.21875 C 2.484375 12.933594 3.625 13.367188 5.175781 13.367188 C 6.730469 13.367188 7.875 12.921875 8.574219 12.21875 C 9.257812 11.53125 9.285156 10.632812 9.003906 10.09375 C 8.878906 9.855469 8.710938 9.644531 8.507812 9.464844 Z M 8.507812 9.464844 "/>
<path style=" stroke:none;fill-rule:nonzero;fill:rgb(94.509804%,47.45098%,18.823529%);fill-opacity:1;" d="M 7.371094 8.738281 C 6.710938 8.464844 5.945312 8.320312 5.167969 8.320312 C 4.386719 8.320312 3.621094 8.460938 2.960938 8.738281 C 2.242188 9.035156 1.683594 9.480469 1.414062 10.023438 C 1.105469 10.65625 1.21875 11.351562 1.839844 11.960938 C 2.550781 12.660156 3.761719 13.089844 5.167969 13.089844 C 6.574219 13.089844 7.78125 12.660156 8.492188 11.960938 C 9.113281 11.351562 9.226562 10.652344 8.917969 10.019531 C 8.648438 9.480469 8.09375 9.035156 7.371094 8.738281 Z M 7.371094 8.738281 "/>
<path style=" stroke:none;fill-rule:nonzero;fill:url(#linear1);" d="M 5.296875 9.042969 C 5.167969 8.777344 5.191406 8.535156 5.21875 8.324219 L 5.167969 8.324219 C 4.386719 8.324219 3.621094 8.464844 2.964844 8.738281 C 2.242188 9.039062 1.683594 9.480469 1.417969 10.023438 C 1.105469 10.65625 1.21875 11.355469 1.839844 11.964844 C 1.882812 12.007812 1.929688 12.046875 1.976562 12.089844 C 4.59375 11.933594 5.960938 10.402344 5.296875 9.042969 Z M 5.296875 9.042969 "/>
<path style=" stroke:none;fill-rule:evenodd;fill:rgb(100%,100%,100%);fill-opacity:1;" d="M 3.480469 9.085938 C 3.960938 9.210938 4.433594 9.359375 4.898438 9.53125 C 4.992188 9.25 5.089844 8.972656 5.203125 8.699219 C 5.316406 8.972656 5.417969 9.25 5.507812 9.53125 C 5.972656 9.359375 6.441406 9.214844 6.921875 9.09375 C 6.589844 9.304688 6.265625 9.53125 5.960938 9.777344 C 6.601562 9.859375 7.207031 9.964844 7.839844 10.105469 C 7.207031 10.089844 6.613281 10.113281 5.980469 10.152344 C 6.425781 10.53125 6.808594 10.894531 7.222656 11.304688 C 6.65625 10.980469 6.125 10.710938 5.53125 10.429688 C 5.417969 10.925781 5.308594 11.417969 5.207031 11.914062 L 4.890625 10.453125 C 4.300781 10.734375 3.765625 11 3.175781 11.308594 C 3.578125 10.910156 3.996094 10.53125 4.425781 10.167969 C 3.796875 10.125 3.191406 10.117188 2.546875 10.109375 C 3.179688 9.972656 3.804688 9.863281 4.449219 9.78125 C 4.136719 9.535156 3.816406 9.300781 3.480469 9.085938 Z M 5.203125 9.949219 C 5.203125 9.585938 5.203125 9.222656 5.203125 8.859375 C 5.09375 9.164062 4.996094 9.46875 4.902344 9.777344 C 5.003906 9.835938 5.105469 9.890625 5.203125 9.949219 Z M 3.761719 9.207031 C 4.152344 9.378906 4.53125 9.570312 4.90625 9.777344 C 4.8125 9.789062 4.722656 9.796875 4.628906 9.808594 C 4.347656 9.597656 4.058594 9.394531 3.761719 9.207031 Z M 5.203125 9.949219 C 5.957031 9.949219 6.703125 9.988281 7.453125 10.0625 C 6.796875 9.945312 6.160156 9.855469 5.503906 9.777344 C 5.402344 9.835938 5.304688 9.890625 5.203125 9.949219 Z M 6.644531 9.207031 C 6.253906 9.378906 5.875 9.570312 5.5 9.777344 C 5.488281 9.726562 5.472656 9.675781 5.457031 9.625 C 5.847656 9.46875 6.242188 9.328125 6.644531 9.207031 Z M 5.164062 9.949219 L 5.203125 11.546875 L 5.511719 10.132812 C 5.410156 10.070312 5.265625 10.011719 5.164062 9.949219 Z M 6.859375 11.035156 C 6.421875 10.71875 5.972656 10.417969 5.511719 10.132812 C 5.609375 10.125 5.703125 10.121094 5.796875 10.113281 C 6.160156 10.410156 6.515625 10.71875 6.859375 11.035156 Z M 5.203125 9.949219 C 4.449219 9.960938 3.859375 9.996094 3.121094 10.058594 C 3.757812 10.058594 4.25 10.085938 4.898438 10.136719 C 5 10.074219 5.101562 10.011719 5.203125 9.949219 Z M 3.550781 11.035156 C 3.988281 10.71875 4.4375 10.417969 4.898438 10.136719 L 4.9375 10.3125 C 4.46875 10.539062 4.003906 10.777344 3.550781 11.035156 Z M 3.550781 11.035156 "/>
<path style=" stroke:none;fill-rule:evenodd;fill:rgb(77.647059%,15.294118%,19.215686%);fill-opacity:1;" d="M 5.203125 8.71875 C 5.316406 8.992188 5.417969 9.269531 5.511719 9.550781 C 5.957031 9.382812 6.410156 9.242188 6.871094 9.125 L 6.921875 9.09375 C 6.445312 9.214844 5.972656 9.359375 5.511719 9.53125 C 5.417969 9.25 5.316406 8.972656 5.203125 8.699219 C 5.089844 8.972656 4.992188 9.25 4.898438 9.53125 C 4.433594 9.359375 3.960938 9.210938 3.480469 9.085938 L 3.527344 9.117188 C 3.992188 9.238281 4.449219 9.382812 4.898438 9.550781 C 4.992188 9.269531 5.09375 8.992188 5.203125 8.71875 Z M 5.203125 8.71875 "/>
<path style=" stroke:none;fill-rule:evenodd;fill:rgb(78.431373%,30.196078%,20%);fill-opacity:1;" d="M 4.425781 10.167969 C 3.988281 10.539062 3.585938 10.90625 3.179688 11.308594 L 3.246094 11.273438 C 3.644531 10.878906 4 10.558594 4.429688 10.195312 L 4.429688 10.167969 Z M 4.425781 10.167969 "/>
<path style=" stroke:none;fill-rule:evenodd;fill:rgb(75.686275%,10.196078%,14.117647%);fill-opacity:1;" d="M 5.203125 9.949219 L 5.203125 9.96875 Z M 5.1875 9.957031 L 5.171875 9.96875 C 5.082031 10.023438 4.988281 10.078125 4.898438 10.132812 L 4.902344 10.152344 L 5.203125 9.972656 L 5.203125 9.949219 Z M 5.1875 9.957031 "/>
<path style=" stroke:none;fill-rule:evenodd;fill:rgb(78.431373%,30.196078%,20%);fill-opacity:1;" d="M 4.90625 9.777344 L 4.875 9.78125 L 4.628906 9.808594 C 4.347656 9.59375 4.0625 9.390625 3.761719 9.203125 L 3.761719 9.226562 C 4.058594 9.414062 4.347656 9.617188 4.628906 9.828125 C 4.71875 9.820312 4.8125 9.808594 4.902344 9.800781 L 5.167969 9.949219 L 5.203125 9.949219 Z M 3.550781 11.0625 C 4.007812 10.804688 4.46875 10.5625 4.9375 10.335938 L 4.9375 10.308594 C 4.46875 10.535156 4.003906 10.777344 3.550781 11.035156 Z M 3.550781 11.0625 "/>
<path style=" stroke:none;fill-rule:evenodd;fill:rgb(64.313725%,11.764706%,14.509804%);fill-opacity:1;" d="M 5.515625 10.132812 L 5.207031 11.542969 L 5.207031 11.5625 L 5.511719 10.15625 C 5.824219 10.347656 6.28125 10.644531 6.859375 11.0625 L 6.859375 11.035156 C 6.421875 10.71875 5.972656 10.417969 5.515625 10.132812 Z M 6.003906 10.167969 L 5.980469 10.152344 L 5.980469 10.183594 C 6.410156 10.546875 6.753906 10.871094 7.152344 11.265625 L 7.21875 11.304688 C 6.800781 10.886719 6.425781 10.53125 6 10.167969 Z M 6.003906 10.167969 "/>
<path style=" stroke:none;fill-rule:evenodd;fill:rgb(78.431373%,30.196078%,20%);fill-opacity:1;" d="M 4.429688 9.785156 C 3.792969 9.867188 3.175781 9.972656 2.546875 10.109375 L 2.644531 10.109375 C 3.25 9.980469 3.835938 9.878906 4.449219 9.800781 L 4.449219 9.78125 Z M 4.898438 10.136719 C 4.308594 10.082031 3.71875 10.054688 3.125 10.058594 L 3.125 10.078125 C 3.710938 10.070312 4.289062 10.101562 4.875 10.152344 L 4.898438 10.132812 "/>
<path style=" stroke:none;fill-rule:evenodd;fill:rgb(64.313725%,11.764706%,14.509804%);fill-opacity:1;" d="M 5.957031 9.777344 C 6.601562 9.859375 7.207031 9.964844 7.835938 10.105469 L 7.734375 10.105469 C 7.132812 9.976562 6.574219 9.878906 5.960938 9.800781 L 5.960938 9.777344 Z M 5.957031 9.777344 "/>
<path style=" stroke:none;fill-rule:evenodd;fill:rgb(64.313725%,11.764706%,14.509804%);fill-opacity:1;" d="M 5.203125 9.949219 C 5.957031 9.949219 6.703125 9.988281 7.453125 10.0625 L 7.453125 10.085938 C 6.714844 10.011719 5.976562 9.972656 5.238281 9.96875 L 5.21875 9.960938 L 5.203125 9.949219 L 5.238281 9.949219 M 5.503906 9.777344 L 5.53125 9.78125 C 5.894531 9.582031 6.265625 9.394531 6.644531 9.226562 L 6.644531 9.207031 C 6.253906 9.378906 5.875 9.570312 5.5 9.777344 "/>
<path style=" stroke:none;fill-rule:evenodd;fill:rgb(75.686275%,10.196078%,14.117647%);fill-opacity:1;" d="M 5.503906 9.777344 C 5.488281 9.726562 5.472656 9.675781 5.457031 9.625 L 5.457031 9.644531 L 5.496094 9.777344 L 5.5 9.777344 "/>
<path style=" stroke:none;fill-rule:evenodd;fill:rgb(100%,100%,100%);fill-opacity:1;" d="M 5.28125 12.941406 L 5.207031 12.996094 L 5.128906 12.941406 L 5.128906 12.332031 C 5.152344 12.316406 5.183594 12.300781 5.207031 12.285156 C 5.226562 12.300781 5.257812 12.316406 5.277344 12.332031 C 5.277344 12.535156 5.277344 12.738281 5.277344 12.941406 Z M 1.640625 11.460938 L 1.605469 11.53125 L 1.691406 11.558594 L 2.328125 11.222656 C 2.332031 11.199219 2.339844 11.171875 2.351562 11.148438 L 2.285156 11.128906 C 2.070312 11.238281 1.855469 11.347656 1.644531 11.460938 Z M 1.484375 10.203125 L 1.425781 10.25 L 1.457031 10.296875 C 1.660156 10.265625 1.859375 10.242188 2.058594 10.222656 L 2.117188 10.164062 L 2.082031 10.128906 C 1.882812 10.148438 1.683594 10.175781 1.484375 10.203125 Z M 2.253906 9.191406 L 2.191406 9.214844 C 2.191406 9.226562 2.195312 9.25 2.199219 9.261719 C 2.34375 9.28125 2.492188 9.308594 2.640625 9.335938 L 2.703125 9.300781 L 2.695312 9.261719 C 2.546875 9.234375 2.398438 9.210938 2.253906 9.1875 Z M 6.757812 8.566406 L 6.816406 8.566406 L 6.835938 8.585938 C 6.761719 8.636719 6.683594 8.6875 6.609375 8.738281 L 6.550781 8.738281 L 6.53125 8.714844 C 6.605469 8.660156 6.679688 8.613281 6.757812 8.566406 Z M 5.152344 8.351562 L 5.195312 8.339844 L 5.238281 8.351562 C 5.238281 8.414062 5.238281 8.472656 5.238281 8.53125 L 5.191406 8.546875 L 5.148438 8.53125 C 5.148438 8.472656 5.152344 8.414062 5.152344 8.351562 Z M 3.539062 8.589844 C 3.546875 8.582031 3.5625 8.570312 3.570312 8.5625 L 3.628906 8.5625 C 3.707031 8.613281 3.78125 8.664062 3.855469 8.714844 L 3.835938 8.738281 C 3.816406 8.738281 3.789062 8.742188 3.769531 8.742188 C 3.691406 8.691406 3.617188 8.640625 3.539062 8.589844 Z M 3.070312 12.566406 C 3.039062 12.574219 3 12.574219 2.972656 12.582031 C 2.964844 12.5625 2.949219 12.539062 2.941406 12.519531 C 3.09375 12.339844 3.242188 12.164062 3.398438 11.988281 L 3.496094 11.96875 L 3.523438 12.035156 C 3.371094 12.210938 3.21875 12.390625 3.070312 12.570312 Z M 8.71875 11.460938 L 8.753906 11.53125 L 8.667969 11.558594 L 8.03125 11.222656 C 8.027344 11.195312 8.019531 11.171875 8.011719 11.148438 L 8.074219 11.128906 C 8.289062 11.238281 8.503906 11.347656 8.71875 11.460938 Z M 8.875 10.203125 L 8.933594 10.25 L 8.898438 10.296875 C 8.699219 10.265625 8.5 10.242188 8.300781 10.222656 L 8.242188 10.164062 L 8.277344 10.128906 C 8.476562 10.148438 8.675781 10.175781 8.875 10.203125 Z M 8.105469 9.191406 L 8.167969 9.214844 C 8.167969 9.226562 8.164062 9.25 8.160156 9.261719 C 8.015625 9.28125 7.867188 9.308594 7.71875 9.335938 L 7.65625 9.300781 L 7.664062 9.261719 C 7.8125 9.234375 7.960938 9.210938 8.109375 9.1875 Z M 7.289062 12.570312 L 7.390625 12.582031 L 7.417969 12.519531 C 7.269531 12.339844 7.117188 12.164062 6.964844 11.988281 L 6.863281 11.96875 L 6.835938 12.035156 C 6.988281 12.210938 7.140625 12.390625 7.289062 12.570312 Z M 7.289062 12.570312 "/>
<path style=" stroke:none;fill-rule:evenodd;fill:rgb(78.823529%,38.039216%,20.392157%);fill-opacity:1;" d="M 1.640625 11.496094 L 1.621094 11.535156 L 1.605469 11.53125 L 1.640625 11.460938 C 1.855469 11.347656 2.070312 11.238281 2.285156 11.128906 L 2.351562 11.148438 L 2.335938 11.183594 C 2.320312 11.179688 2.296875 11.175781 2.28125 11.171875 Z M 1.492188 10.230469 L 1.441406 10.269531 L 1.425781 10.25 L 1.484375 10.203125 C 1.683594 10.175781 1.882812 10.152344 2.082031 10.128906 L 2.117188 10.167969 L 2.105469 10.179688 L 2.085938 10.160156 C 1.886719 10.179688 1.6875 10.203125 1.492188 10.234375 Z M 2.195312 9.246094 L 2.191406 9.214844 L 2.253906 9.191406 C 2.398438 9.210938 2.546875 9.234375 2.695312 9.261719 L 2.703125 9.300781 C 2.699219 9.300781 2.402344 9.242188 2.253906 9.222656 Z M 2.195312 9.246094 "/>
<path style=" stroke:none;fill-rule:evenodd;fill:rgb(64.313725%,11.764706%,14.509804%);fill-opacity:1;" d="M 6.816406 8.597656 L 6.816406 8.601562 L 6.835938 8.585938 L 6.816406 8.566406 L 6.757812 8.566406 C 6.679688 8.613281 6.605469 8.664062 6.53125 8.714844 L 6.546875 8.734375 C 6.617188 8.6875 6.6875 8.640625 6.757812 8.59375 L 6.816406 8.59375 Z M 6.816406 8.597656 "/>
<path style=" stroke:none;fill-rule:evenodd;fill:rgb(70.588235%,10.196078%,13.72549%);fill-opacity:1;" d="M 5.152344 8.382812 L 5.195312 8.371094 L 5.238281 8.382812 L 5.238281 8.351562 L 5.195312 8.339844 L 5.152344 8.351562 Z M 5.152344 8.382812 "/>
<path style=" stroke:none;fill-rule:evenodd;fill:rgb(78.431373%,30.196078%,20%);fill-opacity:1;" d="M 3.625 8.589844 L 3.835938 8.734375 L 3.855469 8.714844 C 3.78125 8.664062 3.703125 8.613281 3.625 8.5625 L 3.566406 8.5625 C 3.5625 8.570312 3.542969 8.585938 3.535156 8.589844 L 3.554688 8.601562 L 3.570312 8.589844 Z M 3.625 8.589844 "/>
<path style=" stroke:none;fill-rule:evenodd;fill:rgb(64.313725%,11.764706%,14.509804%);fill-opacity:1;" d="M 3.488281 11.992188 C 3.496094 12.003906 3.507812 12.03125 3.515625 12.046875 L 3.523438 12.035156 C 3.519531 12.027344 3.5 11.988281 3.492188 11.96875 L 3.394531 11.988281 C 3.242188 12.164062 3.089844 12.339844 2.941406 12.519531 C 2.941406 12.527344 2.949219 12.539062 2.953125 12.546875 L 3.40625 12.011719 C 3.429688 12.003906 3.464844 12 3.488281 11.996094 Z M 8.71875 11.496094 L 8.738281 11.535156 L 8.75 11.53125 L 8.71875 11.460938 C 8.503906 11.347656 8.289062 11.238281 8.074219 11.128906 L 8.011719 11.148438 L 8.023438 11.183594 C 8.039062 11.179688 8.0625 11.175781 8.082031 11.171875 Z M 8.867188 10.230469 L 8.917969 10.269531 L 8.933594 10.25 L 8.871094 10.203125 C 8.671875 10.175781 8.472656 10.152344 8.273438 10.128906 L 8.238281 10.167969 L 8.25 10.179688 L 8.273438 10.160156 C 8.472656 10.179688 8.667969 10.203125 8.867188 10.234375 Z M 8.164062 9.246094 L 8.167969 9.214844 L 8.105469 9.191406 C 7.960938 9.210938 7.8125 9.234375 7.664062 9.261719 L 7.65625 9.300781 C 7.660156 9.300781 7.957031 9.242188 8.105469 9.222656 Z M 6.871094 11.992188 C 6.863281 12.003906 6.851562 12.03125 6.84375 12.046875 L 6.835938 12.035156 C 6.839844 12.027344 6.855469 11.988281 6.863281 11.96875 L 6.964844 11.988281 C 7.117188 12.164062 7.269531 12.339844 7.417969 12.519531 L 7.40625 12.546875 L 6.953125 12.011719 C 6.929688 12.003906 6.894531 12 6.871094 11.992188 Z M 5.265625 12.351562 L 5.28125 12.941406 L 5.28125 12.328125 C 5.257812 12.3125 5.226562 12.300781 5.207031 12.285156 C 5.183594 12.300781 5.15625 12.316406 5.132812 12.328125 L 5.132812 12.941406 L 5.144531 12.351562 C 5.164062 12.339844 5.1875 12.328125 5.207031 12.316406 C 5.222656 12.328125 5.25 12.339844 5.265625 12.351562 Z M 5.265625 12.351562 "/>
<path style=" stroke:none;fill-rule:evenodd;fill:rgb(78.431373%,30.196078%,20%);fill-opacity:1;" d="M 2.238281 10.140625 C 2.503906 8.949219 4.15625 8.59375 5.191406 8.59375 C 6.226562 8.59375 7.878906 8.945312 8.144531 10.140625 C 8.476562 11.625 6.265625 12.175781 5.191406 12.175781 C 4.121094 12.175781 1.90625 11.621094 2.238281 10.140625 Z M 2.34375 10.132812 C 2.597656 8.980469 4.195312 8.640625 5.191406 8.640625 C 6.1875 8.640625 7.785156 8.980469 8.035156 10.132812 C 8.347656 11.554688 6.222656 12.082031 5.191406 12.082031 C 4.160156 12.082031 2.035156 11.554688 2.34375 10.128906 Z M 2.34375 10.132812 "/>
<path style=" stroke:none;fill-rule:evenodd;fill:rgb(100%,100%,100%);fill-opacity:1;" d="M 2.246094 10.175781 C 2.511719 8.984375 4.097656 8.625 5.199219 8.625 C 6.304688 8.625 7.886719 8.984375 8.152344 10.175781 C 8.484375 11.65625 6.273438 12.210938 5.199219 12.210938 C 4.128906 12.210938 1.914062 11.65625 2.246094 10.175781 Z M 2.355469 10.167969 C 2.605469 9.015625 4.203125 8.675781 5.199219 8.675781 C 6.195312 8.675781 7.792969 9.015625 8.046875 10.167969 C 8.355469 11.589844 6.230469 12.117188 5.199219 12.117188 C 4.167969 12.117188 2.042969 11.589844 2.355469 10.167969 Z M 2.355469 10.167969 "/>
<use xlink:href="#surface5" mask="url(#mask0)"/>
<path style=" stroke:none;fill-rule:nonzero;fill:rgb(97.647059%,69.019608%,37.254902%);fill-opacity:1;" d="M 6.601562 6.875 L 6.503906 6.78125 C 6.496094 6.75 6.53125 6.707031 6.539062 6.65625 C 6.53125 6.652344 6.519531 6.648438 6.511719 6.644531 C 6.488281 6.554688 6.46875 6.390625 6.511719 6.304688 C 6.539062 6.261719 6.550781 6.207031 6.542969 6.15625 C 6.460938 5.878906 6.300781 5.636719 6.1875 5.375 C 6.167969 5.3125 6.15625 5.246094 6.160156 5.179688 C 6.070312 5.085938 5.972656 4.835938 5.921875 4.679688 C 5.816406 4.9375 5.753906 5.230469 5.753906 5.296875 C 5.753906 5.585938 6.046875 5.726562 5.945312 6.207031 C 5.925781 6.300781 5.890625 6.429688 5.855469 6.5625 C 5.914062 6.894531 5.914062 7.140625 6.003906 7.527344 C 6.140625 7.660156 6.242188 7.828125 6.292969 8.011719 C 6.324219 8.136719 6.433594 8.429688 6.566406 8.472656 C 6.648438 8.5 6.28125 8.566406 6.179688 8.4375 C 6.074219 8.304688 5.90625 8.210938 5.824219 8.078125 C 5.757812 7.972656 5.65625 7.746094 5.59375 7.640625 L 5.515625 8.050781 C 5.621094 8.488281 5.558594 8.585938 5.464844 8.945312 C 5.421875 9.101562 5.113281 8.378906 5.113281 8.320312 C 5.117188 8.203125 5.101562 8.082031 5.066406 7.96875 C 5 7.839844 5.007812 7.660156 5.015625 7.523438 C 5.03125 7.296875 5.027344 6.863281 5.039062 6.75 C 4.960938 6.558594 4.757812 6.207031 4.738281 6.011719 C 4.707031 5.707031 4.761719 5.398438 4.71875 5.09375 C 4.664062 5.246094 4.609375 5.4375 4.492188 5.554688 C 4.3125 5.734375 4.148438 5.921875 3.992188 6.117188 C 3.933594 6.195312 3.984375 6.234375 3.894531 6.359375 C 3.804688 6.488281 3.851562 6.429688 3.835938 6.546875 C 3.832031 6.5625 3.824219 6.578125 3.816406 6.589844 C 3.769531 6.628906 3.71875 6.664062 3.652344 6.636719 C 3.519531 6.570312 3.511719 6.472656 3.5 6.347656 C 3.484375 6.109375 3.660156 6.097656 3.761719 5.953125 C 3.957031 5.671875 4.054688 5.195312 4.265625 4.984375 C 4.277344 4.941406 4.328125 4.789062 4.421875 4.5625 C 4.425781 4.28125 4.496094 4.027344 4.785156 3.914062 C 4.90625 3.867188 5.058594 3.855469 5.066406 3.691406 C 5.066406 3.660156 5.0625 3.628906 5.050781 3.601562 C 5.003906 3.5625 4.96875 3.5625 4.945312 3.535156 C 4.898438 3.472656 4.859375 3.085938 4.867188 3.0625 C 4.933594 2.734375 5.089844 2.625 5.289062 2.632812 C 5.527344 2.644531 5.710938 2.757812 5.703125 3.074219 C 5.695312 3.328125 5.429688 3.65625 5.824219 3.78125 C 5.976562 3.828125 6.003906 3.796875 6.132812 3.925781 C 6.277344 4.070312 6.3125 4.328125 6.335938 4.570312 L 6.484375 4.910156 C 6.753906 5.367188 6.65625 5.511719 6.757812 5.976562 C 6.804688 6.132812 6.828125 6.300781 6.835938 6.464844 C 6.839844 6.589844 6.742188 6.871094 6.605469 6.875 Z M 6.601562 6.875 "/>
<path style=" stroke:none;fill-rule:nonzero;fill:url(#linear2);" d="M 3.78125 6.53125 C 3.792969 6.410156 3.777344 6.421875 3.855469 6.308594 C 3.925781 6.203125 3.890625 6.152344 3.957031 6.0625 C 4.105469 5.863281 4.265625 5.671875 4.433594 5.488281 C 4.550781 5.371094 4.710938 4.96875 4.746094 4.828125 C 4.753906 4.808594 4.765625 4.796875 4.769531 4.816406 C 4.792969 5.082031 4.832031 5.308594 4.820312 5.570312 C 4.800781 6.125 4.816406 6.070312 5.046875 6.585938 C 5.066406 6.378906 5.117188 6.074219 5.238281 5.972656 C 5.097656 6.515625 5.089844 7.28125 5.074219 7.519531 C 5.066406 7.640625 5.035156 7.832031 5.089844 7.941406 C 5.109375 8.03125 5.117188 8.121094 5.113281 8.214844 L 5.117188 9.160156 L 5.035156 9.578125 C 4.976562 9.734375 4.871094 9.867188 4.734375 9.960938 C 4.699219 9.980469 4.613281 10.027344 4.613281 10.066406 C 4.613281 10.128906 5.035156 10.253906 5.132812 10.105469 C 5.195312 10.007812 5.269531 9.921875 5.351562 9.847656 C 5.484375 9.71875 5.335938 9.585938 5.355469 9.417969 C 5.386719 9.113281 5.515625 8.855469 5.558594 8.570312 C 5.589844 8.394531 5.570312 8.214844 5.5 8.050781 L 5.558594 7.507812 C 5.625 7.628906 5.683594 7.75 5.738281 7.875 C 5.839844 8.09375 5.84375 8.113281 6.027344 8.296875 C 6.09375 8.359375 6.148438 8.425781 6.199219 8.503906 C 6.285156 8.640625 6.34375 8.773438 6.335938 8.9375 C 6.273438 9.050781 6.246094 9.046875 6.164062 9.113281 C 6.160156 9.132812 6.164062 9.148438 6.175781 9.164062 C 6.183594 9.175781 6.203125 9.183594 6.21875 9.179688 C 6.496094 9.179688 6.460938 9.039062 6.566406 8.851562 C 6.632812 8.730469 6.824219 8.546875 6.613281 8.484375 C 6.542969 8.464844 6.484375 8.421875 6.445312 8.359375 C 6.300781 8.117188 6.292969 8.121094 6.21875 7.894531 C 6.167969 7.761719 6.082031 7.644531 5.964844 7.558594 C 5.90625 7.425781 5.867188 7.28125 5.851562 7.132812 L 5.761719 6.523438 C 5.871094 6.097656 5.925781 6.007812 5.742188 5.601562 C 5.699219 5.503906 5.675781 5.398438 5.675781 5.292969 C 5.695312 5.089844 5.742188 4.886719 5.824219 4.695312 C 5.839844 4.632812 5.878906 4.582031 5.933594 4.550781 C 5.980469 4.714844 6.132812 5.054688 6.222656 5.136719 C 6.21875 5.203125 6.230469 5.273438 6.25 5.335938 C 6.363281 5.601562 6.523438 5.847656 6.601562 6.128906 C 6.628906 6.226562 6.59375 6.273438 6.566406 6.351562 C 6.554688 6.425781 6.558594 6.503906 6.570312 6.578125 L 6.609375 6.597656 C 6.601562 6.640625 6.585938 6.683594 6.574219 6.722656 C 6.582031 6.75 6.597656 6.769531 6.625 6.78125 C 6.6875 6.769531 6.773438 6.546875 6.769531 6.457031 C 6.765625 6.296875 6.734375 6.136719 6.6875 5.984375 C 6.597656 5.523438 6.648438 5.398438 6.390625 4.953125 L 6.246094 4.589844 C 6.222656 4.410156 6.152344 3.984375 5.914062 3.90625 C 5.871094 3.894531 5.832031 3.894531 5.773438 3.875 C 5.460938 3.773438 5.460938 3.535156 5.546875 3.273438 C 5.621094 3.039062 5.632812 2.765625 5.289062 2.738281 C 5.078125 2.71875 5.015625 2.886719 4.96875 3.078125 C 4.96875 3.097656 4.980469 3.410156 5.027344 3.476562 C 5.117188 3.546875 5.167969 3.523438 5.164062 3.695312 C 5.160156 3.835938 5.070312 3.917969 4.945312 3.960938 C 4.75 4.03125 4.648438 4.070312 4.578125 4.277344 C 4.550781 4.371094 4.539062 4.472656 4.539062 4.570312 L 4.539062 4.582031 C 4.476562 4.730469 4.417969 4.882812 4.367188 5.035156 C 4.125 5.28125 4.003906 5.839844 3.753906 6.074219 C 3.589844 6.230469 3.539062 6.242188 3.597656 6.484375 C 3.625 6.523438 3.660156 6.554688 3.703125 6.578125 C 3.734375 6.574219 3.761719 6.558594 3.78125 6.53125 Z M 3.78125 6.53125 "/>
</g>
</svg>
